<svg width="1112" height="1163" viewBox="0 0 1112 1163" fill="none" xmlns="http://www.w3.org/2000/svg">
<path fill-rule="evenodd" clip-rule="evenodd" d="M201.333 0.675567C168.327 3.60357 139.262 14.6936 115.403 33.4636C99.6915 45.8226 86.5665 62.0406 77.4015 80.4166C67.4345 100.404 62.9405 117.505 62.1375 138.5C61.0895 165.909 68.6815 193.047 83.5685 215.109C88.8115 222.878 90.8395 225.22 183.833 330.882C215.458 366.815 241.438 396.504 241.565 396.857C241.693 397.211 187.435 421.291 120.992 450.37L0.1875 503.239L17.0335 542.142L33.8805 581.046L17.3325 619.24C8.23152 640.247 0.969496 657.899 1.1955 658.467C1.4205 659.035 55.6445 683.125 121.692 712C187.74 740.875 241.678 764.796 241.556 765.158C241.433 765.521 207.583 804.162 166.333 851.029C125.083 897.895 88.6995 939.899 85.4815 944.37C62.0195 976.968 55.7735 1019.71 68.5145 1060.47C71.9795 1071.56 79.4765 1086.84 86.9625 1098.06C94.4775 1109.33 111.127 1126.31 121.833 1133.62C144.173 1148.88 169.928 1158.16 197.689 1160.96C212.097 1162.41 900.569 1162.41 914.977 1160.96C952.184 1157.21 984.37 1142.48 1008.83 1118C1028.86 1097.97 1041.72 1074.32 1047.97 1046C1051.01 1032.25 1051.26 1007.13 1048.49 994C1044.47 974.949 1037.4 958.557 1026.89 943.978C1023.83 939.735 987.583 897.92 946.333 851.056C905.083 804.193 871.232 765.546 871.108 765.175C870.984 764.804 924.922 740.875 990.969 712C1057.02 683.125 1111.24 659.039 1111.46 658.476C1111.69 657.913 1104.42 640.262 1095.31 619.251L1078.75 581.049L1095.45 542.483C1105.2 519.975 1111.77 503.568 1111.24 503.077C1110.74 502.615 1056.45 478.671 990.599 449.868C924.745 421.066 870.969 397.203 871.099 396.84C871.228 396.477 905.083 357.835 946.333 310.969C987.583 264.103 1023.07 223.45 1025.2 220.629C1052.15 184.886 1058.08 136.726 1040.92 92.8466C1022.33 45.2966 982.278 13.3506 927.833 2.6496C917.352 0.589597 916.674 0.585582 561.333 0.453582C365.533 0.380582 203.533 0.480567 201.333 0.675567ZM271 169.898C271.277 170.646 336.441 245.465 498.411 431.003L522.49 458.585L385.662 519.542C310.407 553.069 248.835 580.737 248.835 581.026C248.834 581.315 310.424 608.99 385.701 642.526L522.57 703.5L515.951 711.01C486.419 744.52 271.259 991.446 271 992.126C270.81 992.623 393.794 993 556.333 993C716.168 993 841.853 992.62 841.666 992.137C841.401 991.451 605.043 720.214 593.195 707L590.057 703.5L726.945 642.523C802.233 608.986 863.831 581.311 863.828 581.023C863.826 580.734 802.242 553.066 726.977 519.537L590.13 458.573L604.147 442.537C702.953 329.5 841.407 170.565 841.666 169.879C841.858 169.375 720.27 169 556.333 169C387.919 169 270.803 169.369 271 169.898Z" fill="#FD4718"/>
</svg>
